<svg width="1363" height="163" viewBox="0 0 1363 163" fill="none" xmlns="http://www.w3.org/2000/svg">
<path d="M0 15C0 6.71573 6.71573 0 15 0H37V163H15C6.71573 163 0 156.284 0 148V15Z" fill="#424242"/>
<rect width="1097" height="163" transform="translate(37)" fill="#F0F0F0"/>
<path d="M101.906 53.9219L94.3945 51.2383V48.0859L104.602 52.375V54.6367L101.906 53.9219ZM94.3945 56.1719L101.918 53.4297L104.602 52.7852V55.0352L94.3945 59.3242V56.1719ZM116.637 43.9375V61H113.133V43.9375H116.637ZM123.023 51.0273V61H119.648V48.3203H122.812L123.023 51.0273ZM122.531 54.2148H121.617C121.617 53.2773 121.738 52.4336 121.98 51.6836C122.223 50.9258 122.562 50.2812 123 49.75C123.438 49.2109 123.957 48.8008 124.559 48.5195C125.168 48.2305 125.848 48.0859 126.598 48.0859C127.191 48.0859 127.734 48.1719 128.227 48.3438C128.719 48.5156 129.141 48.7891 129.492 49.1641C129.852 49.5391 130.125 50.0352 130.312 50.6523C130.508 51.2695 130.605 52.0234 130.605 52.9141V61H127.207V52.9023C127.207 52.3398 127.129 51.9023 126.973 51.5898C126.816 51.2773 126.586 51.0586 126.281 50.9336C125.984 50.8008 125.617 50.7344 125.18 50.7344C124.727 50.7344 124.332 50.8242 123.996 51.0039C123.668 51.1836 123.395 51.4336 123.176 51.7539C122.965 52.0664 122.805 52.4336 122.695 52.8555C122.586 53.2773 122.531 53.7305 122.531 54.2148ZM137.484 58.5391L140.297 48.3203H143.824L139.547 61H137.414L137.484 58.5391ZM135.551 48.3203L138.375 58.5508L138.434 61H136.289L132.012 48.3203H135.551ZM151.008 61.2344C150.023 61.2344 149.141 61.0781 148.359 60.7656C147.578 60.4453 146.914 60.0039 146.367 59.4414C145.828 58.8789 145.414 58.2266 145.125 57.4844C144.836 56.7344 144.691 55.9375 144.691 55.0938V54.625C144.691 53.6641 144.828 52.7852 145.102 51.9883C145.375 51.1914 145.766 50.5 146.273 49.9141C146.789 49.3281 147.414 48.8789 148.148 48.5664C148.883 48.2461 149.711 48.0859 150.633 48.0859C151.531 48.0859 152.328 48.2344 153.023 48.5312C153.719 48.8281 154.301 49.25 154.77 49.7969C155.246 50.3438 155.605 51 155.848 51.7656C156.09 52.5234 156.211 53.3672 156.211 54.2969V55.7031H146.133V53.4531H152.895V53.1953C152.895 52.7266 152.809 52.3086 152.637 51.9414C152.473 51.5664 152.223 51.2695 151.887 51.0508C151.551 50.832 151.121 50.7227 150.598 50.7227C150.152 50.7227 149.77 50.8203 149.449 51.0156C149.129 51.2109 148.867 51.4844 148.664 51.8359C148.469 52.1875 148.32 52.6016 148.219 53.0781C148.125 53.5469 148.078 54.0625 148.078 54.625V55.0938C148.078 55.6016 148.148 56.0703 148.289 56.5C148.438 56.9297 148.645 57.3008 148.91 57.6133C149.184 57.9258 149.512 58.168 149.895 58.3398C150.285 58.5117 150.727 58.5977 151.219 58.5977C151.828 58.5977 152.395 58.4805 152.918 58.2461C153.449 58.0039 153.906 57.6406 154.289 57.1562L155.93 58.9375C155.664 59.3203 155.301 59.6875 154.84 60.0391C154.387 60.3906 153.84 60.6797 153.199 60.9062C152.559 61.125 151.828 61.2344 151.008 61.2344ZM164.988 57.4961C164.988 57.2539 164.918 57.0352 164.777 56.8398C164.637 56.6445 164.375 56.4648 163.992 56.3008C163.617 56.1289 163.074 55.9727 162.363 55.832C161.723 55.6914 161.125 55.5156 160.57 55.3047C160.023 55.0859 159.547 54.8242 159.141 54.5195C158.742 54.2148 158.43 53.8555 158.203 53.4414C157.977 53.0195 157.863 52.5391 157.863 52C157.863 51.4688 157.977 50.9688 158.203 50.5C158.438 50.0312 158.77 49.6172 159.199 49.2578C159.637 48.8906 160.168 48.6055 160.793 48.4023C161.426 48.1914 162.137 48.0859 162.926 48.0859C164.027 48.0859 164.973 48.2617 165.762 48.6133C166.559 48.9648 167.168 49.4492 167.59 50.0664C168.02 50.6758 168.234 51.3711 168.234 52.1523H164.859C164.859 51.8242 164.789 51.5312 164.648 51.2734C164.516 51.0078 164.305 50.8008 164.016 50.6523C163.734 50.4961 163.367 50.418 162.914 50.418C162.539 50.418 162.215 50.4844 161.941 50.6172C161.668 50.7422 161.457 50.9141 161.309 51.1328C161.168 51.3438 161.098 51.5781 161.098 51.8359C161.098 52.0312 161.137 52.207 161.215 52.3633C161.301 52.5117 161.438 52.6484 161.625 52.7734C161.812 52.8984 162.055 53.0156 162.352 53.125C162.656 53.2266 163.031 53.3203 163.477 53.4062C164.391 53.5938 165.207 53.8398 165.926 54.1445C166.645 54.4414 167.215 54.8477 167.637 55.3633C168.059 55.8711 168.27 56.5391 168.27 57.3672C168.27 57.9297 168.145 58.4453 167.895 58.9141C167.645 59.3828 167.285 59.793 166.816 60.1445C166.348 60.4883 165.785 60.7578 165.129 60.9531C164.48 61.1406 163.75 61.2344 162.938 61.2344C161.758 61.2344 160.758 61.0234 159.938 60.6016C159.125 60.1797 158.508 59.6445 158.086 58.9961C157.672 58.3398 157.465 57.668 157.465 56.9805H160.664C160.68 57.4414 160.797 57.8125 161.016 58.0938C161.242 58.375 161.527 58.5781 161.871 58.7031C162.223 58.8281 162.602 58.8906 163.008 58.8906C163.445 58.8906 163.809 58.832 164.098 58.7148C164.387 58.5898 164.605 58.4258 164.754 58.2227C164.91 58.0117 164.988 57.7695 164.988 57.4961ZM176.672 48.3203V50.7109H169.289V48.3203H176.672ZM171.117 45.1914H174.492V57.1797C174.492 57.5469 174.539 57.8281 174.633 58.0234C174.734 58.2188 174.883 58.3555 175.078 58.4336C175.273 58.5039 175.52 58.5391 175.816 58.5391C176.027 58.5391 176.215 58.5312 176.379 58.5156C176.551 58.4922 176.695 58.4688 176.812 58.4453L176.824 60.9297C176.535 61.0234 176.223 61.0977 175.887 61.1523C175.551 61.207 175.18 61.2344 174.773 61.2344C174.031 61.2344 173.383 61.1133 172.828 60.8711C172.281 60.6211 171.859 60.2227 171.562 59.6758C171.266 59.1289 171.117 58.4102 171.117 57.5195V45.1914ZM182.156 48.3203V61H178.77V48.3203H182.156ZM178.559 45.0156C178.559 44.5234 178.73 44.1172 179.074 43.7969C179.418 43.4766 179.879 43.3164 180.457 43.3164C181.027 43.3164 181.484 43.4766 181.828 43.7969C182.18 44.1172 182.355 44.5234 182.355 45.0156C182.355 45.5078 182.18 45.9141 181.828 46.2344C181.484 46.5547 181.027 46.7148 180.457 46.7148C179.879 46.7148 179.418 46.5547 179.074 46.2344C178.73 45.9141 178.559 45.5078 178.559 45.0156ZM189.246 61H185.848V47.1953C185.848 46.2344 186.035 45.4258 186.41 44.7695C186.793 44.1055 187.328 43.6055 188.016 43.2695C188.711 42.9258 189.535 42.7539 190.488 42.7539C190.801 42.7539 191.102 42.7773 191.391 42.8242C191.68 42.8633 191.961 42.9141 192.234 42.9766L192.199 45.5195C192.051 45.4805 191.895 45.4531 191.73 45.4375C191.566 45.4219 191.375 45.4141 191.156 45.4141C190.75 45.4141 190.402 45.4844 190.113 45.625C189.832 45.7578 189.617 45.957 189.469 46.2227C189.32 46.4883 189.246 46.8125 189.246 47.1953V61ZM191.777 48.3203V50.7109H183.961V48.3203H191.777ZM197.309 59.5703L200.672 48.3203H204.293L199.195 62.9102C199.086 63.2305 198.938 63.5742 198.75 63.9414C198.57 64.3086 198.324 64.6562 198.012 64.9844C197.707 65.3203 197.32 65.5938 196.852 65.8047C196.391 66.0156 195.824 66.1211 195.152 66.1211C194.832 66.1211 194.57 66.1016 194.367 66.0625C194.164 66.0234 193.922 65.9688 193.641 65.8984V63.4258C193.727 63.4258 193.816 63.4258 193.91 63.4258C194.004 63.4336 194.094 63.4375 194.18 63.4375C194.625 63.4375 194.988 63.3867 195.27 63.2852C195.551 63.1836 195.777 63.0273 195.949 62.8164C196.121 62.6133 196.258 62.3477 196.359 62.0195L197.309 59.5703ZM195.902 48.3203L198.656 57.5078L199.137 61.082L196.84 61.3281L192.281 48.3203H195.902Z" fill="#888888"/>
<path d="M104.344 84.875V119H96.1406V84.875H104.344ZM117.727 99.0078V119H109.828V93.6406H117.234L117.727 99.0078ZM116.766 105.453L114.961 105.5C114.961 103.719 115.172 102.078 115.594 100.578C116.016 99.0781 116.641 97.7734 117.469 96.6641C118.297 95.5547 119.312 94.6953 120.516 94.0859C121.734 93.4766 123.141 93.1719 124.734 93.1719C125.844 93.1719 126.852 93.3438 127.758 93.6875C128.664 94.0156 129.445 94.5391 130.102 95.2578C130.758 95.9609 131.258 96.8828 131.602 98.0234C131.961 99.1484 132.141 100.5 132.141 102.078V119H124.242V103.086C124.242 102.008 124.117 101.195 123.867 100.648C123.633 100.102 123.289 99.7344 122.836 99.5469C122.383 99.3594 121.828 99.2656 121.172 99.2656C120.484 99.2656 119.867 99.4219 119.32 99.7344C118.773 100.047 118.305 100.484 117.914 101.047C117.539 101.594 117.25 102.242 117.047 102.992C116.859 103.742 116.766 104.562 116.766 105.453ZM131.25 105.453L129.047 105.5C129.047 103.719 129.242 102.078 129.633 100.578C130.039 99.0781 130.641 97.7734 131.438 96.6641C132.25 95.5547 133.258 94.6953 134.461 94.0859C135.664 93.4766 137.062 93.1719 138.656 93.1719C139.812 93.1719 140.875 93.3438 141.844 93.6875C142.812 94.0312 143.648 94.5859 144.352 95.3516C145.055 96.1172 145.602 97.1328 145.992 98.3984C146.383 99.6484 146.578 101.195 146.578 103.039V119H138.656V103.039C138.656 101.992 138.531 101.203 138.281 100.672C138.047 100.125 137.703 99.7578 137.25 99.5703C136.797 99.3672 136.258 99.2656 135.633 99.2656C134.883 99.2656 134.234 99.4219 133.688 99.7344C133.141 100.047 132.68 100.484 132.305 101.047C131.945 101.594 131.68 102.242 131.508 102.992C131.336 103.742 131.25 104.562 131.25 105.453ZM159.07 98.5156V128.75H151.172V93.6406H158.531L159.07 98.5156ZM174.633 106.016V106.508C174.633 108.352 174.422 110.062 174 111.641C173.578 113.219 172.953 114.594 172.125 115.766C171.297 116.938 170.266 117.852 169.031 118.508C167.812 119.148 166.398 119.469 164.789 119.469C163.273 119.469 161.969 119.133 160.875 118.461C159.781 117.789 158.867 116.859 158.133 115.672C157.398 114.484 156.805 113.125 156.352 111.594C155.898 110.062 155.539 108.445 155.273 106.742V106.109C155.539 104.281 155.898 102.586 156.352 101.023C156.805 99.4453 157.398 98.0703 158.133 96.8984C158.867 95.7266 159.773 94.8125 160.852 94.1562C161.945 93.5 163.25 93.1719 164.766 93.1719C166.375 93.1719 167.789 93.4766 169.008 94.0859C170.242 94.6953 171.273 95.5703 172.102 96.7109C172.945 97.8359 173.578 99.1875 174 100.766C174.422 102.344 174.633 104.094 174.633 106.016ZM166.734 106.508V106.016C166.734 105.031 166.664 104.133 166.523 103.32C166.383 102.492 166.156 101.773 165.844 101.164C165.547 100.555 165.148 100.086 164.648 99.7578C164.148 99.4297 163.531 99.2656 162.797 99.2656C161.953 99.2656 161.242 99.3984 160.664 99.6641C160.102 99.9141 159.648 100.305 159.305 100.836C158.977 101.352 158.742 102 158.602 102.781C158.477 103.547 158.422 104.445 158.438 105.477V107.398C158.406 108.586 158.523 109.633 158.789 110.539C159.055 111.43 159.516 112.125 160.172 112.625C160.828 113.125 161.719 113.375 162.844 113.375C163.594 113.375 164.219 113.203 164.719 112.859C165.219 112.5 165.617 112.008 165.914 111.383C166.211 110.742 166.422 110.008 166.547 109.18C166.672 108.352 166.734 107.461 166.734 106.508ZM186.492 83V119H178.57V83H186.492ZM203.648 119.469C201.586 119.469 199.742 119.148 198.117 118.508C196.492 117.852 195.117 116.953 193.992 115.812C192.883 114.672 192.031 113.359 191.438 111.875C190.859 110.391 190.57 108.82 190.57 107.164V106.273C190.57 104.414 190.828 102.695 191.344 101.117C191.859 99.5234 192.625 98.1328 193.641 96.9453C194.656 95.7578 195.93 94.8359 197.461 94.1797C198.992 93.5078 200.773 93.1719 202.805 93.1719C204.602 93.1719 206.211 93.4609 207.633 94.0391C209.055 94.6172 210.258 95.4453 211.242 96.5234C212.242 97.6016 213 98.9062 213.516 100.438C214.047 101.969 214.312 103.688 214.312 105.594V108.805H193.594V103.859H206.602V103.25C206.617 102.406 206.469 101.688 206.156 101.094C205.859 100.5 205.422 100.047 204.844 99.7344C204.266 99.4219 203.562 99.2656 202.734 99.2656C201.875 99.2656 201.164 99.4531 200.602 99.8281C200.055 100.203 199.625 100.719 199.312 101.375C199.016 102.016 198.805 102.758 198.68 103.602C198.555 104.445 198.492 105.336 198.492 106.273V107.164C198.492 108.102 198.617 108.953 198.867 109.719C199.133 110.484 199.508 111.141 199.992 111.688C200.492 112.219 201.086 112.633 201.773 112.93C202.477 113.227 203.273 113.375 204.164 113.375C205.242 113.375 206.305 113.172 207.352 112.766C208.398 112.359 209.297 111.688 210.047 110.75L213.633 115.016C213.117 115.75 212.383 116.461 211.43 117.148C210.492 117.836 209.367 118.398 208.055 118.836C206.742 119.258 205.273 119.469 203.648 119.469ZM225.492 99.0078V119H217.594V93.6406H225L225.492 99.0078ZM224.531 105.453L222.727 105.5C222.727 103.719 222.938 102.078 223.359 100.578C223.781 99.0781 224.406 97.7734 225.234 96.6641C226.062 95.5547 227.078 94.6953 228.281 94.0859C229.5 93.4766 230.906 93.1719 232.5 93.1719C233.609 93.1719 234.617 93.3438 235.523 93.6875C236.43 94.0156 237.211 94.5391 237.867 95.2578C238.523 95.9609 239.023 96.8828 239.367 98.0234C239.727 99.1484 239.906 100.5 239.906 102.078V119H232.008V103.086C232.008 102.008 231.883 101.195 231.633 100.648C231.398 100.102 231.055 99.7344 230.602 99.5469C230.148 99.3594 229.594 99.2656 228.938 99.2656C228.25 99.2656 227.633 99.4219 227.086 99.7344C226.539 100.047 226.07 100.484 225.68 101.047C225.305 101.594 225.016 102.242 224.812 102.992C224.625 103.742 224.531 104.562 224.531 105.453ZM239.016 105.453L236.812 105.5C236.812 103.719 237.008 102.078 237.398 100.578C237.805 99.0781 238.406 97.7734 239.203 96.6641C240.016 95.5547 241.023 94.6953 242.227 94.0859C243.43 93.4766 244.828 93.1719 246.422 93.1719C247.578 93.1719 248.641 93.3438 249.609 93.6875C250.578 94.0312 251.414 94.5859 252.117 95.3516C252.82 96.1172 253.367 97.1328 253.758 98.3984C254.148 99.6484 254.344 101.195 254.344 103.039V119H246.422V103.039C246.422 101.992 246.297 101.203 246.047 100.672C245.812 100.125 245.469 99.7578 245.016 99.5703C244.562 99.3672 244.023 99.2656 243.398 99.2656C242.648 99.2656 242 99.4219 241.453 99.7344C240.906 100.047 240.445 100.484 240.07 101.047C239.711 101.594 239.445 102.242 239.273 102.992C239.102 103.742 239.016 104.562 239.016 105.453ZM271.148 119.469C269.086 119.469 267.242 119.148 265.617 118.508C263.992 117.852 262.617 116.953 261.492 115.812C260.383 114.672 259.531 113.359 258.938 111.875C258.359 110.391 258.07 108.82 258.07 107.164V106.273C258.07 104.414 258.328 102.695 258.844 101.117C259.359 99.5234 260.125 98.1328 261.141 96.9453C262.156 95.7578 263.43 94.8359 264.961 94.1797C266.492 93.5078 268.273 93.1719 270.305 93.1719C272.102 93.1719 273.711 93.4609 275.133 94.0391C276.555 94.6172 277.758 95.4453 278.742 96.5234C279.742 97.6016 280.5 98.9062 281.016 100.438C281.547 101.969 281.812 103.688 281.812 105.594V108.805H261.094V103.859H274.102V103.25C274.117 102.406 273.969 101.688 273.656 101.094C273.359 100.5 272.922 100.047 272.344 99.7344C271.766 99.4219 271.062 99.2656 270.234 99.2656C269.375 99.2656 268.664 99.4531 268.102 99.8281C267.555 100.203 267.125 100.719 266.812 101.375C266.516 102.016 266.305 102.758 266.18 103.602C266.055 104.445 265.992 105.336 265.992 106.273V107.164C265.992 108.102 266.117 108.953 266.367 109.719C266.633 110.484 267.008 111.141 267.492 111.688C267.992 112.219 268.586 112.633 269.273 112.93C269.977 113.227 270.773 113.375 271.664 113.375C272.742 113.375 273.805 113.172 274.852 112.766C275.898 112.359 276.797 111.688 277.547 110.75L281.133 115.016C280.617 115.75 279.883 116.461 278.93 117.148C277.992 117.836 276.867 118.398 275.555 118.836C274.242 119.258 272.773 119.469 271.148 119.469ZM292.781 99.0547V119H284.883V93.6406H292.289L292.781 99.0547ZM291.844 105.453L289.992 105.5C289.992 103.562 290.227 101.836 290.695 100.32C291.164 98.7891 291.828 97.4922 292.688 96.4297C293.547 95.3672 294.57 94.5625 295.758 94.0156C296.961 93.4531 298.297 93.1719 299.766 93.1719C300.938 93.1719 302.008 93.3438 302.977 93.6875C303.961 94.0312 304.805 94.5859 305.508 95.3516C306.227 96.1172 306.773 97.1328 307.148 98.3984C307.539 99.6484 307.734 101.195 307.734 103.039V119H299.789V103.016C299.789 102 299.648 101.227 299.367 100.695C299.086 100.148 298.68 99.7734 298.148 99.5703C297.617 99.3672 296.969 99.2656 296.203 99.2656C295.391 99.2656 294.703 99.4219 294.141 99.7344C293.578 100.047 293.125 100.484 292.781 101.047C292.453 101.594 292.211 102.242 292.055 102.992C291.914 103.742 291.844 104.562 291.844 105.453ZM325.477 93.6406V99.125H310.195V93.6406H325.477ZM313.406 87.3359H321.305V110.727C321.305 111.398 321.383 111.922 321.539 112.297C321.695 112.656 321.961 112.914 322.336 113.07C322.727 113.211 323.242 113.281 323.883 113.281C324.336 113.281 324.711 113.273 325.008 113.258C325.305 113.227 325.586 113.188 325.852 113.141V118.789C325.18 119.008 324.477 119.172 323.742 119.281C323.008 119.406 322.227 119.469 321.398 119.469C319.711 119.469 318.266 119.203 317.062 118.672C315.875 118.141 314.969 117.305 314.344 116.164C313.719 115.023 313.406 113.539 313.406 111.711V87.3359ZM341.789 112.625V102.172C341.789 101.453 341.688 100.836 341.484 100.32C341.281 99.8047 340.961 99.4062 340.523 99.125C340.086 98.8281 339.5 98.6797 338.766 98.6797C338.172 98.6797 337.664 98.7812 337.242 98.9844C336.82 99.1875 336.5 99.4922 336.281 99.8984C336.062 100.305 335.953 100.82 335.953 101.445H328.055C328.055 100.273 328.312 99.1875 328.828 98.1875C329.359 97.1719 330.109 96.2891 331.078 95.5391C332.062 94.7891 333.234 94.2109 334.594 93.8047C335.969 93.3828 337.5 93.1719 339.188 93.1719C341.203 93.1719 343 93.5078 344.578 94.1797C346.172 94.8516 347.43 95.8594 348.352 97.2031C349.273 98.5312 349.734 100.203 349.734 102.219V112.602C349.734 114.258 349.828 115.516 350.016 116.375C350.203 117.219 350.469 117.961 350.812 118.602V119H342.891C342.516 118.219 342.234 117.266 342.047 116.141C341.875 115 341.789 113.828 341.789 112.625ZM342.75 103.508L342.797 107.727H339.305C338.57 107.727 337.945 107.828 337.43 108.031C336.93 108.234 336.523 108.516 336.211 108.875C335.914 109.219 335.695 109.609 335.555 110.047C335.43 110.484 335.367 110.945 335.367 111.43C335.367 111.898 335.477 112.32 335.695 112.695C335.93 113.055 336.242 113.336 336.633 113.539C337.023 113.742 337.461 113.844 337.945 113.844C338.82 113.844 339.562 113.68 340.172 113.352C340.797 113.008 341.273 112.594 341.602 112.109C341.93 111.625 342.094 111.172 342.094 110.75L343.828 113.984C343.516 114.609 343.156 115.242 342.75 115.883C342.359 116.523 341.867 117.117 341.273 117.664C340.695 118.195 339.984 118.633 339.141 118.977C338.297 119.305 337.273 119.469 336.07 119.469C334.508 119.469 333.07 119.148 331.758 118.508C330.461 117.867 329.422 116.977 328.641 115.836C327.859 114.68 327.469 113.352 327.469 111.852C327.469 110.539 327.703 109.367 328.172 108.336C328.656 107.305 329.383 106.43 330.352 105.711C331.32 104.992 332.555 104.445 334.055 104.07C335.555 103.695 337.32 103.508 339.352 103.508H342.75ZM367.477 93.6406V99.125H352.195V93.6406H367.477ZM355.406 87.3359H363.305V110.727C363.305 111.398 363.383 111.922 363.539 112.297C363.695 112.656 363.961 112.914 364.336 113.07C364.727 113.211 365.242 113.281 365.883 113.281C366.336 113.281 366.711 113.273 367.008 113.258C367.305 113.227 367.586 113.188 367.852 113.141V118.789C367.18 119.008 366.477 119.172 365.742 119.281C365.008 119.406 364.227 119.469 363.398 119.469C361.711 119.469 360.266 119.203 359.062 118.672C357.875 118.141 356.969 117.305 356.344 116.164C355.719 115.023 355.406 113.539 355.406 111.711V87.3359ZM378.961 93.6406V119H371.039V93.6406H378.961ZM370.57 87.1016C370.57 85.9766 370.977 85.0547 371.789 84.3359C372.602 83.6172 373.656 83.2578 374.953 83.2578C376.25 83.2578 377.305 83.6172 378.117 84.3359C378.93 85.0547 379.336 85.9766 379.336 87.1016C379.336 88.2266 378.93 89.1484 378.117 89.8672C377.305 90.5859 376.25 90.9453 374.953 90.9453C373.656 90.9453 372.602 90.5859 371.789 89.8672C370.977 89.1484 370.57 88.2266 370.57 87.1016ZM382.852 106.578V106.086C382.852 104.227 383.117 102.516 383.648 100.953C384.18 99.375 384.961 98.0078 385.992 96.8516C387.023 95.6953 388.297 94.7969 389.812 94.1562C391.328 93.5 393.078 93.1719 395.062 93.1719C397.062 93.1719 398.82 93.5 400.336 94.1562C401.867 94.7969 403.148 95.6953 404.18 96.8516C405.211 98.0078 405.992 99.375 406.523 100.953C407.055 102.516 407.32 104.227 407.32 106.086V106.578C407.32 108.422 407.055 110.133 406.523 111.711C405.992 113.273 405.211 114.641 404.18 115.812C403.148 116.969 401.875 117.867 400.359 118.508C398.844 119.148 397.094 119.469 395.109 119.469C393.125 119.469 391.367 119.148 389.836 118.508C388.305 117.867 387.023 116.969 385.992 115.812C384.961 114.641 384.18 113.273 383.648 111.711C383.117 110.133 382.852 108.422 382.852 106.578ZM390.75 106.086V106.578C390.75 107.531 390.82 108.422 390.961 109.25C391.102 110.078 391.336 110.805 391.664 111.43C391.992 112.039 392.438 112.516 393 112.859C393.562 113.203 394.266 113.375 395.109 113.375C395.938 113.375 396.625 113.203 397.172 112.859C397.734 112.516 398.18 112.039 398.508 111.43C398.836 110.805 399.07 110.078 399.211 109.25C399.352 108.422 399.422 107.531 399.422 106.578V106.086C399.422 105.164 399.352 104.297 399.211 103.484C399.07 102.656 398.836 101.93 398.508 101.305C398.18 100.664 397.734 100.164 397.172 99.8047C396.609 99.4453 395.906 99.2656 395.062 99.2656C394.234 99.2656 393.539 99.4453 392.977 99.8047C392.43 100.164 391.992 100.664 391.664 101.305C391.336 101.93 391.102 102.656 390.961 103.484C390.82 104.297 390.75 105.164 390.75 106.086ZM418.594 99.0547V119H410.695V93.6406H418.102L418.594 99.0547ZM417.656 105.453L415.805 105.5C415.805 103.562 416.039 101.836 416.508 100.32C416.977 98.7891 417.641 97.4922 418.5 96.4297C419.359 95.3672 420.383 94.5625 421.57 94.0156C422.773 93.4531 424.109 93.1719 425.578 93.1719C426.75 93.1719 427.82 93.3438 428.789 93.6875C429.773 94.0312 430.617 94.5859 431.32 95.3516C432.039 96.1172 432.586 97.1328 432.961 98.3984C433.352 99.6484 433.547 101.195 433.547 103.039V119H425.602V103.016C425.602 102 425.461 101.227 425.18 100.695C424.898 100.148 424.492 99.7734 423.961 99.5703C423.43 99.3672 422.781 99.2656 422.016 99.2656C421.203 99.2656 420.516 99.4219 419.953 99.7344C419.391 100.047 418.938 100.484 418.594 101.047C418.266 101.594 418.023 102.242 417.867 102.992C417.727 103.742 417.656 104.562 417.656 105.453Z" fill="black"/>
<path d="M1134 0H1348C1356.28 0 1363 6.71573 1363 15V148C1363 156.284 1356.28 163 1348 163H1134V0Z" fill="#084F09"/>
<path d="M1280.07 47.5H1216.93L1214.5 49.9286V113.071L1216.93 115.5H1280.07L1282.5 113.071V49.9286L1280.07 47.5ZM1277.64 110.643H1233.93V100.929H1245.1C1246.56 103.843 1249.96 105.786 1253.36 105.786C1258.7 105.786 1263.07 101.414 1263.07 96.0714C1263.07 90.7286 1258.7 86.3571 1253.36 86.3571C1248.01 86.3571 1243.64 90.7286 1243.64 96.0714H1229.07V110.643H1219.36V52.3571H1229.07V63.5286C1226.16 64.9857 1224.21 68.3857 1224.21 71.7857C1224.21 77.1286 1228.59 81.5 1233.93 81.5C1239.27 81.5 1243.64 77.1286 1243.64 71.7857H1253.36C1253.36 77.1286 1257.73 81.5 1263.07 81.5C1268.41 81.5 1272.79 77.1286 1272.79 71.7857C1272.79 66.4429 1268.41 62.0714 1263.07 62.0714C1259.67 62.0714 1256.27 64.0143 1254.81 66.9286H1242.19C1240.73 64.0143 1237.33 62.0714 1233.93 62.0714V52.3571H1277.64V110.643ZM1248.5 96.0714C1248.5 93.1571 1250.44 91.2143 1253.36 91.2143C1256.27 91.2143 1258.21 93.1571 1258.21 96.0714C1258.21 98.9857 1256.27 100.929 1253.36 100.929C1250.44 100.929 1248.5 98.9857 1248.5 96.0714ZM1233.93 66.9286C1236.84 66.9286 1238.79 68.8714 1238.79 71.7857C1238.79 74.7 1236.84 76.6429 1233.93 76.6429C1231.01 76.6429 1229.07 74.7 1229.07 71.7857C1229.07 68.8714 1231.01 66.9286 1233.93 66.9286ZM1263.07 66.9286C1265.99 66.9286 1267.93 68.8714 1267.93 71.7857C1267.93 74.7 1265.99 76.6429 1263.07 76.6429C1260.16 76.6429 1258.21 74.7 1258.21 71.7857C1258.21 68.8714 1260.16 66.9286 1263.07 66.9286Z" fill="white"/>
</svg>
